# xmcd
#
# Track frame offsets: 
#        150
#        17844
#        35726
#
# Disc length: 696 seconds
#
# Revision: 1
# Processed by: cddbd v1.5.2PL0 Copyright (c) Steve Scherf et al.
# Submitted via: ExactAudioCopy v1.1
#
DISCID=1f02b603
DTITLE=Alex Parks - Maybe That's What It Takes
DYEAR=2003
DGENRE=Blues
TTITLE0=Maybe That's What It Takes
TTITLE1=Beautiful
TTITLE2=Over Conscious
EXTD=YEAR: 2003
EXTT0=
EXTT1=
EXTT2=
PLAYORDER=
